# xmcd
#
# Track frame offsets: 
#        150
#        13661
#        24871
#        37642
#        51184
#        64146
#        76440
#        88220
#        101167
#        113504
#        125586
#        136141
#        148012
#        162132
#        173693
#        188153
#        202537
#        217319
#        235153
#        252398
#
# Disc length: 3576 seconds
#
# Revision: 3
# Processed by: cddbd v1.5.2PL0 Copyright (c) Steve Scherf et al.
# Submitted via: ExactAudioCopyFreeDBPlugin 1.0
#
DISCID=0a0df614
DTITLE=William Bell - The Very Best of William Bell
DYEAR=2007
DGENRE=Rhythm and Blues
TTITLE0=You Don't Miss Your Water
TTITLE1=Any Other Way
TTITLE2=Share What You Got (But Keep What You Need)
TTITLE3=Never Like This Before
TTITLE4=Everybody Loves a Winner
TTITLE5=Eloise (Hang on in There)
TTITLE6=Everyday Will Be Like a Holiday
TTITLE7=Tribute to a King
TTITLE8=Every Man Oughta Have a Woman (Jones-Isbell-Bell) (3-1968)
TTITLE9=Private Number (with Judy Clay)
TTITLE10=I Forgot to Be Your Lover
TTITLE11=My Baby Specializes (with Judy Clay)
TTITLE12=My Whole World is Falling Down
TTITLE13=Happy
TTITLE14=Born Under a Bad Sign
TTITLE15=All for the Love of a Woman
TTITLE16=Save Us
TTITLE17=Lovin' on Borrowed Time
TTITLE18=I've Got to Go on Without You
TTITLE19=Gettin' What You Want (Losin' What You Got)
EXTD=YEAR: 2007
EXTT0=
EXTT1=
EXTT2=
EXTT3=
EXTT4=
EXTT5=
EXTT6=
EXTT7=
EXTT8=
EXTT9=
EXTT10=
EXTT11=
EXTT12=
EXTT13=
EXTT14=
EXTT15=
EXTT16=
EXTT17=
EXTT18=
EXTT19=
PLAYORDER=
